<svg xmlns="http://www.w3.org/2000/svg" width="602" height="138" viewBox="0 0 602 138">
    <path fill="none" fill-rule="evenodd" stroke="#FFF" stroke-width="2" d="M71.423 115.01c5.163 0 9.696-1.261 13.598-3.783 3.903-2.521 7.16-5.883 9.771-10.086 2.612-4.202 4.578-9.02 5.899-14.454 1.32-5.433 1.981-11.091 1.981-16.975 0-6.304-.75-12.307-2.251-18.011-1.501-5.703-3.662-10.717-6.484-15.04-2.822-4.322-6.274-7.759-10.356-10.31-4.083-2.552-8.676-3.828-13.779-3.828-5.163 0-9.68 1.26-13.553 3.782-3.873 2.522-7.115 5.884-9.726 10.087-2.612 4.202-4.578 9.035-5.899 14.499-1.32 5.463-1.981 11.106-1.981 16.93 0 6.304.75 12.307 2.251 18.01 1.501 5.704 3.648 10.717 6.44 15.04 2.791 4.323 6.213 7.76 10.266 10.311 4.052 2.552 8.66 3.828 13.823 3.828zm-3.152 21.523c-9.726 0-18.701-1.44-26.926-4.323-8.225-2.881-15.325-7.099-21.298-12.652-5.974-5.554-10.642-12.368-14.004-20.443C2.681 91.04 1 81.81 1 71.423c0-10.626 1.756-20.262 5.268-28.908 3.512-8.645 8.45-16.044 14.814-22.198 6.364-6.154 13.944-10.912 22.74-14.274C52.616 2.681 62.326 1 72.953 1c9.726 0 18.701 1.44 26.927 4.323 8.225 2.881 15.324 7.084 21.298 12.607 5.973 5.524 10.641 12.323 14.003 20.398s5.043 17.305 5.043 27.692c0 10.626-1.77 20.277-5.313 28.953-3.542 8.675-8.48 16.09-14.814 22.243-6.334 6.154-13.914 10.912-22.739 14.274-8.825 3.362-18.521 5.043-29.088 5.043zm160.311-21.523c5.164 0 9.696-1.261 13.599-3.783 3.902-2.521 7.16-5.883 9.77-10.086 2.612-4.202 4.579-9.02 5.9-14.454 1.32-5.433 1.98-11.091 1.98-16.975 0-6.304-.75-12.307-2.25-18.011-1.502-5.703-3.663-10.717-6.485-15.04-2.821-4.322-6.274-7.759-10.356-10.31-4.083-2.552-8.675-3.828-13.779-3.828-5.163 0-9.68 1.26-13.553 3.782-3.872 2.522-7.114 5.884-9.726 10.087-2.611 4.202-4.578 9.035-5.898 14.499-1.321 5.463-1.982 11.106-1.982 16.93 0 6.304.75 12.307 2.252 18.01 1.5 5.704 3.647 10.717 6.439 15.04 2.791 4.323 6.214 7.76 10.266 10.311 4.053 2.552 8.66 3.828 13.823 3.828zm-3.151 21.523c-9.726 0-18.702-1.44-26.927-4.323-8.225-2.881-15.324-7.099-21.298-12.652-5.974-5.554-10.641-12.368-14.004-20.443-3.362-8.075-5.043-17.305-5.043-27.692 0-10.626 1.756-20.262 5.269-28.908 3.512-8.645 8.45-16.044 14.814-22.198 6.364-6.154 13.943-10.912 22.739-14.274C209.776 2.681 219.487 1 230.113 1c9.726 0 18.702 1.44 26.927 4.323 8.225 2.881 15.324 7.084 21.298 12.607 5.974 5.524 10.641 12.323 14.004 20.398 3.362 8.075 5.043 17.305 5.043 27.692 0 10.626-1.771 20.277-5.314 28.953-3.542 8.675-8.48 16.09-14.814 22.243-6.334 6.154-13.913 10.912-22.739 14.274-8.825 3.362-18.52 5.043-29.087 5.043zm132.754-1.801h-36.562V2.802h51.15c9.307 0 17.442 1.005 24.406 3.016 6.964 2.011 12.758 4.878 17.38 8.6 4.623 3.723 8.09 8.195 10.402 13.418 2.311 5.224 3.467 11.017 3.467 17.381 0 7.024-1.23 13.403-3.692 19.137-2.462 5.733-5.884 10.626-10.267 14.679-4.382 4.052-9.545 7.19-15.489 9.41-5.944 2.222-12.368 3.333-19.272 3.333-1.02 0-1.996-.03-2.927-.09-.93-.06-1.966-.18-3.107-.36l1.621-19.453c.3.06.796.105 1.486.135.69.03 1.276.045 1.756.045 2.762 0 5.074-.66 6.935-1.98 1.86-1.322 3.362-3.063 4.502-5.224 1.141-2.161 1.952-4.593 2.432-7.294.48-2.702.72-5.464.72-8.285 0-4.503-.51-8.346-1.53-11.528-1.021-3.181-2.492-5.763-4.413-7.744-1.921-1.981-4.233-3.422-6.934-4.323-2.702-.9-5.734-1.35-9.096-1.35h-12.968v110.407zm127.261-19.722c2.402 0 4.788-.24 7.16-.72 2.37-.481 4.472-1.291 6.303-2.432a13.91 13.91 0 0 0 4.458-4.413c1.14-1.801 1.711-4.022 1.711-6.664 0-3.182-.825-5.884-2.476-8.105s-3.828-4.187-6.53-5.899c-2.701-1.71-5.763-3.287-9.185-4.727a1103.93 1103.93 0 0 1-10.536-4.503 107.758 107.758 0 0 1-10.537-5.268 41.603 41.603 0 0 1-9.186-7.07c-2.701-2.761-4.878-6.048-6.529-9.86-1.65-3.813-2.476-8.36-2.476-13.644 0-6.184 1.2-11.797 3.602-16.84 2.402-5.044 5.824-9.321 10.266-12.833 4.443-3.512 9.846-6.23 16.21-8.15C484.065 1.96 491.18 1 499.044 1c2.042 0 4.488.075 7.34.225 2.852.15 5.883.405 9.095.766 3.212.36 6.5.825 9.861 1.395 3.363.57 6.605 1.276 9.726 2.117l-5.223 22.964-1.53.72a68.62 68.62 0 0 0-8.016-3.062 87.76 87.76 0 0 0-7.88-2.07c-2.551-.541-4.952-.931-7.204-1.172-2.251-.24-4.247-.36-5.988-.36-5.404 0-9.696 1.08-12.878 3.242-3.182 2.161-4.773 5.403-4.773 9.726 0 3.122.825 5.764 2.476 7.925 1.651 2.161 3.828 4.082 6.53 5.763 2.7 1.682 5.778 3.212 9.23 4.593a297.31 297.31 0 0 1 10.536 4.458 123.612 123.612 0 0 1 10.537 5.313 40.493 40.493 0 0 1 9.23 7.115c2.702 2.791 4.878 6.123 6.53 9.996 1.65 3.872 2.476 8.48 2.476 13.823 0 6.364-1.216 12.128-3.647 17.29-2.432 5.164-5.929 9.577-10.492 13.239-4.563 3.662-10.116 6.499-16.66 8.51-6.544 2.011-13.898 3.017-22.063 3.017-2.942 0-6.14-.15-9.591-.45-3.452-.3-7.055-.78-10.807-1.441-3.752-.66-7.55-1.531-11.392-2.612a88.208 88.208 0 0 1-11.347-4.052l5.133-23.054 1.891-.9a429.309 429.309 0 0 0 9.952 4.412 138.141 138.141 0 0 0 8.915 3.467c2.852.99 5.628 1.756 8.33 2.296 2.702.54 5.403.81 8.105.81zm82.324-34.671L560.205 2.8h38.994l-7.475 77.538H567.77zm12.157 56.194c-2.762 0-5.358-.51-7.79-1.531-2.431-1.02-4.562-2.431-6.394-4.233-1.83-1.8-3.287-3.947-4.367-6.439-1.08-2.491-1.621-5.208-1.621-8.15 0-3.061.585-5.868 1.756-8.42 1.17-2.551 2.731-4.728 4.683-6.529A21.93 21.93 0 0 1 572.903 97a20.924 20.924 0 0 1 7.925-1.531c2.761 0 5.358.51 7.79 1.53 2.43 1.021 4.562 2.432 6.393 4.233 1.831 1.801 3.287 3.948 4.368 6.44 1.08 2.49 1.621 5.207 1.621 8.15 0 3.061-.585 5.868-1.756 8.42-1.17 2.551-2.747 4.727-4.728 6.528a22.51 22.51 0 0 1-6.754 4.233 20.694 20.694 0 0 1-7.835 1.53z"/>
</svg>
