<svg xmlns="http://www.w3.org/2000/svg" width="350" height="82" viewBox="0 0 350 82">
    <path fill="#FFF" fill-rule="evenodd" d="M.492 23.072L2.105 1.973h5.228l4.522 13.48.806 3.14h.288l.821-3.14 4.537-13.48h5.372l1.627 21.099H21.62l-.979-15.77-.086-3.284h-.288l-.865 3.14L14.26 22.64h-3.255L5.821 7.187l-.893-3.169H4.64l-.072 3.255-.965 15.799H.492zm38.566-2.247l-.9.756c-.35.293-.74.571-1.166.835a7.51 7.51 0 0 1-1.397.67 4.64 4.64 0 0 1-1.592.274 3.984 3.984 0 0 1-1.577-.31 3.861 3.861 0 0 1-1.267-.864 4.026 4.026 0 0 1-.85-1.325 4.538 4.538 0 0 1-.31-1.707c0-.652.133-1.291.397-1.915.264-.624.705-1.181 1.325-1.67.619-.49 1.437-.886 2.455-1.189 1.018-.302 2.276-.453 3.773-.453h1.052v-1.181c0-.423-.072-.802-.216-1.138a2.51 2.51 0 0 0-1.534-1.412 3.654 3.654 0 0 0-1.203-.187c-.345 0-.715.041-1.109.123a7.866 7.866 0 0 0-1.166.338 9.075 9.075 0 0 0-1.123.511c-.365.197-.692.41-.98.641l-.259-.144-.663-2.42c1.162-.604 2.242-1.012 3.24-1.223a13.606 13.606 0 0 1 2.81-.317c.902 0 1.706.091 2.412.273.705.183 1.303.464 1.793.843.49.38.861.86 1.116 1.44.254.58.381 1.27.381 2.067v7.057c0 .144.012.302.036.475.024.173.072.336.144.49.072.153.178.283.317.388.14.106.324.159.555.159.134 0 .297-.02.49-.058.191-.038.383-.1.575-.187v1.728a8.403 8.403 0 0 1-1.548.85 3.942 3.942 0 0 1-1.505.317c-.384 0-.715-.072-.993-.216a2.21 2.21 0 0 1-.706-.57 3.358 3.358 0 0 1-.483-.806 6.824 6.824 0 0 1-.324-.943zm-.057-5.199h-.908c-.998 0-1.802.07-2.412.209-.61.139-1.082.331-1.418.576-.337.245-.56.528-.67.85-.11.321-.166.67-.166 1.044 0 .393.058.739.173 1.037.115.297.271.547.468.749.197.201.43.355.699.46.268.106.556.159.864.159a3.375 3.375 0 0 0 1.505-.36c.273-.135.564-.312.871-.533.307-.22.638-.504.994-.85v-3.341zM48.548 0h3.485v23.072h-3.485V0zM58.57 23.072l-5.689-8.05 5.934-7.173h3.528l-5.99 6.74 6.437 8.483h-4.22zm8.121-15.266h3.5v15.266h-3.5V7.806zm1.743-3.01c-.307 0-.588-.05-.843-.151a2.113 2.113 0 0 1-.662-.41 1.759 1.759 0 0 1-.432-.62c-.101-.24-.151-.5-.151-.778 0-.288.055-.554.165-.8.11-.244.264-.46.461-.647a2.15 2.15 0 0 1 .691-.44c.264-.105.55-.158.857-.158a2.086 2.086 0 0 1 1.47.583c.182.178.326.39.431.634.106.245.159.507.159.785a1.89 1.89 0 0 1-.626 1.433 2.201 2.201 0 0 1-.685.418c-.26.1-.538.15-.835.15zm7.415 3.01h2.823l.49 2.607c.336-.308.715-.632 1.137-.973.423-.34.884-.652 1.383-.936A9.131 9.131 0 0 1 83.26 7.8a5.322 5.322 0 0 1 1.72-.281c.702 0 1.338.132 1.91.396a4.21 4.21 0 0 1 1.46 1.109c.404.475.716 1.044.937 1.706a6.84 6.84 0 0 1 .331 2.175v10.168h-3.5v-9.75c0-.519-.071-.975-.215-1.369a2.698 2.698 0 0 0-.598-.979 2.518 2.518 0 0 0-.907-.59 3.13 3.13 0 0 0-1.13-.202c-.711 0-1.383.182-2.017.547-.634.365-1.272.845-1.916 1.44v10.903H75.85V7.806zM99.44 24.123c-.221.125-.452.269-.692.432a5.23 5.23 0 0 0-.67.54 2.842 2.842 0 0 0-.51.648 1.5 1.5 0 0 0-.202.756c0 .288.084.557.252.807.168.25.418.468.749.655s.741.336 1.231.447c.49.11 1.051.165 1.685.165.73 0 1.378-.072 1.944-.216.567-.144 1.045-.338 1.433-.583.39-.245.684-.526.886-.843.202-.316.303-.648.303-.993 0-.308-.077-.574-.23-.8a1.894 1.894 0 0 0-.627-.569 3.034 3.034 0 0 0-.93-.338 5.722 5.722 0 0 0-1.137-.108h-3.485zm-2.132-.288c-.662-.23-1.202-.535-1.62-.915-.418-.379-.626-.828-.626-1.346 0-.317.084-.62.252-.907.168-.288.388-.562.662-.821.274-.26.583-.507.929-.742.346-.235.696-.463 1.051-.684a6.064 6.064 0 0 1-1.52-.922 5.046 5.046 0 0 1-1.022-1.166 4.712 4.712 0 0 1-.576-1.34c-.12-.47-.18-.945-.18-1.425 0-.922.197-1.755.59-2.5A6.139 6.139 0 0 1 96.81 9.16a7.11 7.11 0 0 1 2.218-1.217 7.91 7.91 0 0 1 2.571-.425c.662 0 1.315.081 1.959.245.643.163 1.185.384 1.627.662.307-.173.715-.32 1.224-.44a6.879 6.879 0 0 1 1.584-.18h2.449l-.62 2.478h-3.096c.058.057.144.17.26.338.114.168.225.377.33.627.106.25.2.535.281.857.082.321.123.665.123 1.03 0 .806-.19 1.557-.57 2.253a6.085 6.085 0 0 1-1.511 1.815 7.302 7.302 0 0 1-2.16 1.21 7.306 7.306 0 0 1-3.047.417 27.02 27.02 0 0 1-.561-.05c-.154.096-.317.204-.49.324-.173.12-.331.25-.475.389-.144.14-.264.29-.36.454a.982.982 0 0 0-.144.504c0 .297.134.537.403.72.269.182.639.273 1.109.273h3.888c.692 0 1.357.084 1.995.252.639.168 1.2.413 1.685.735.485.321.874.715 1.167 1.18.293.466.439.997.439 1.592 0 .663-.19 1.342-.569 2.038-.38.696-.938 1.33-1.678 1.901s-1.651 1.037-2.736 1.397c-1.085.36-2.333.54-3.745.54-.902 0-1.74-.08-2.513-.238-.773-.158-1.445-.384-2.016-.676-.571-.293-1.018-.648-1.34-1.066a2.244 2.244 0 0 1-.482-1.404c0-.461.12-.888.36-1.282a5.22 5.22 0 0 1 .879-1.08 8.193 8.193 0 0 1 1.08-.864c.374-.25.7-.461.98-.634zm.562-10.73c0 .49.084.944.252 1.362.168.417.403.782.706 1.094.302.312.657.555 1.065.727.408.173.857.26 1.347.26.46 0 .893-.08 1.296-.238a3.15 3.15 0 0 0 1.051-.67c.298-.288.533-.636.706-1.044.173-.408.26-.861.26-1.36 0-.49-.085-.942-.253-1.355a3.21 3.21 0 0 0-1.778-1.785 3.471 3.471 0 0 0-1.354-.26c-.46 0-.89.077-1.289.23a3.13 3.13 0 0 0-1.044.656 3.072 3.072 0 0 0-.706 1.03c-.173.403-.26.854-.26 1.354zm30.524 6.145h-6.068l-1.316 3.822h-1.776l5.233-14.066h1.997l5.242 14.066h-1.978l-1.334-3.822zm-.528-1.469l-1.863-5.491-.547-1.96h-.192l-.548 1.96-1.881 5.491h5.03zM27.088 60.29h.801l.66 7.396c-3.487 2.308-7.161 2.92-12.202 2.92C6.266 70.606 0 62.975 0 53.6s6.266-17.007 16.347-17.007c4.852 0 9.234.471 12.202 2.874l-.66 7.396h-.8c-2.639-6.36-5.371-9.469-10.742-9.469-5.23 0-7.867 3.298-7.867 16.206 0 12.955 2.78 16.206 7.867 16.206 5.653 0 9.516-4.381 10.741-9.516zM40.312 41.02c0 1.79-1.46 3.203-3.25 3.203a3.177 3.177 0 0 1-3.204-3.203 3.177 3.177 0 0 1 3.203-3.204c1.79 0 3.25 1.413 3.25 3.204zm.141 23.413c0 2.638.236 4.476 1.932 4.947v.8h-9.658v-.8c1.79-.566 1.884-2.544 1.884-4.947V53.976c0-1.602-.47-2.261-2.402-3.298v-.8l8.244-1.885v16.441zm18.123-16.017h9.186v.8c-1.083 0-3.109.048-6.124 7.303l-5.606 14.086h-.754c-8.338-18.09-8.762-18.891-8.762-18.891-1.13-2.497-2.356-2.497-3.204-2.497v-.801H54.43v.8c-2.638 0-.895 3.534-.895 3.534l4.664 9.987 2.591-6.407s2.921-7.113-2.214-7.113v-.801zm19.018-7.396c0 1.79-1.46 3.203-3.25 3.203a3.177 3.177 0 0 1-3.204-3.203 3.177 3.177 0 0 1 3.204-3.204c1.79 0 3.25 1.413 3.25 3.204zm.141 23.413c0 2.638.236 4.476 1.932 4.947v.8h-9.658v-.8c1.79-.566 1.885-2.544 1.885-4.947V53.976c0-1.602-.471-2.261-2.403-3.298v-.8l8.244-1.885v16.441zm25.331-.33l.66.424c-.66 2.403-3.486 6.078-9.375 6.078-6.171 0-10.364-5.89-10.364-11.401 0-5.418 4.145-11.212 12.201-11.212 3.345 0 5.37 1.366 6.172 2.073.8.706 1.272 2.025.942 3.156-.471 1.649-2.167 2.732-3.863 2.261a3.073 3.073 0 0 1-2.214-3.816c.188-.895.753-1.507 1.46-1.884.424-.188-.612-.99-2.497-.99-1.696 0-6.265 1.461-6.265 9.564 0 5.088 2.732 7.35 5.983 8.056 2.355.518 6.077-.754 7.16-2.309zm35.257-11.683c6.218 4.099 8.81 9.187 5.276 14.322 0 0-2.214 3.863-9.799 3.863-9.139 0-12.908-2.921-12.908-2.921V58.64h.801c1.037 2.873 3.722 11.165 12.107 11.165 5.041 0 6.596-6.831.848-11.024l-7.255-4.57c-6.69-4.192-9.186-8.903-5.276-14.038 0 0 2.308-3.58 9.752-3.58 8.056 0 12.107 2.26 12.107 2.26v7.915h-.8c-.896-2.497-3.77-9.375-11.307-9.375-5.088 0-6.925 6.219-.801 10.223l7.255 4.805zm46.577 16.96v.8h-9.704v-.8c1.79-.518 1.884-2.544 1.884-4.947v-9.14c0-2.637-1.32-3.91-3.439-3.91-1.743 0-3.722 2.12-3.722 4.005v9.045c0 2.591.236 4.523 1.932 4.947v.8h-9.705v-.8c1.79-.518 1.885-2.544 1.885-4.947v-9.14c0-2.637-1.272-3.91-3.392-3.91-1.743 0-3.77 2.168-3.77 3.864v9.28c0 2.591.284 4.382 1.932 4.853v.8h-9.657v-.8c1.79-.518 1.837-2.45 1.837-4.853V54.211c0-1.649-.424-2.496-2.355-3.533v-.8l8.244-1.885v4.852c1.272-2.732 4.146-4.852 7.113-4.852 3.298 0 5.324 1.507 5.89 4.993.988-2.873 4.192-4.993 7.16-4.993 3.674 0 5.936 1.46 5.936 7.16v9.281c0 2.591.235 4.523 1.931 4.947zm15.25-4.052v-6.36c-4.617 1.037-6.172 3.251-6.172 5.654 0 0 0 3.109 3.062 3.109 1.602 0 2.686-1.272 3.11-2.403zm8.197 2.403s.989 0 1.272-.801l.8.33c-.376 1.507-2.543 3.345-5.511 3.345 0 0-4.193 0-4.711-3.816-.707 2.073-3.487 3.816-6.831 3.816 0 0-5.418 0-5.418-4.806 0-5.135 3.957-5.606 12.202-7.679v-2.92c0-4.9-2.733-7.35-5.983-5.654-1.508.754-1.696 1.555-1.367 1.602.707.094 1.32.424 1.743 1.037.848 1.224.519 2.873-.706 3.721-1.225.801-2.874.519-3.722-.706-.565-.895-.612-2.026-.141-2.827.47-.8 1.083-2.073 3.674-3.439 2.12-1.13 4.57-.942 4.57-.942 6.171 0 7.867 3.863 7.867 9.422v7.02s-.047 3.297 2.262 3.297zm17.416-19.504c.99-.424 2.78-.235 3.816.613 1.46 1.272 1.602 3.533.33 4.946a3.506 3.506 0 0 1-4.947.377c-.707-.66-1.083-1.46-1.083-2.308 0-.518-1.932-.047-3.675 2.78v9.798c0 2.638.236 4.476 1.932 4.947v.8h-9.752v-.8c1.837-.566 1.884-2.497 1.884-4.947V53.976c0-1.602-.424-2.309-2.355-3.298v-.8l8.291-1.885v5.323c2.497-3.91 4.428-4.617 5.559-5.088zm18.594 19.033c1.366 0 2.403-.942 2.827-1.65l.706.425c-.942 2.214-3.816 4.57-6.972 4.57-3.722 0-5.936-1.508-5.936-7.208v-14.18h-2.355l-.142-.801h2.497v-6.313l5.889-.99v7.303h5.606l-.188.8h-5.418v14.04c0 2.638 1.13 4.004 3.486 4.004zm46.28-6.972h.801l.66 7.396c-3.486 2.308-7.16 2.92-12.202 2.92-10.081 0-16.347-7.631-16.347-17.006s6.266-17.007 16.347-17.007c4.853 0 9.234.471 12.202 2.874l-.66 7.396h-.8c-2.639-6.36-5.371-9.469-10.742-9.469-5.229 0-7.867 3.298-7.867 16.206 0 12.955 2.78 16.206 7.867 16.206 5.654 0 9.517-4.381 10.741-9.516zm13.224-19.268c0 1.79-1.46 3.203-3.25 3.203a3.177 3.177 0 0 1-3.204-3.203 3.177 3.177 0 0 1 3.203-3.204c1.79 0 3.251 1.413 3.251 3.204zm.141 23.413c0 2.638.236 4.476 1.932 4.947v.8h-9.658v-.8c1.79-.566 1.885-2.544 1.885-4.947V53.976c0-1.602-.471-2.261-2.403-3.298v-.8l8.244-1.885v16.441zm16.804 2.827c1.366 0 2.403-.942 2.827-1.65l.706.425c-.942 2.214-3.815 4.57-6.972 4.57-3.722 0-5.936-1.508-5.936-7.208v-14.18h-2.355l-.142-.801h2.497v-6.313l5.89-.99v7.303h5.605l-.188.8h-5.418v14.04c0 2.638 1.13 4.004 3.486 4.004zm19.96-18.844H350v.8c-.99 0-3.156.095-6.171 7.35l-7.208 18.985c-1.225 3.204-2.638 4.523-3.533 5.23-.848.706-2.497.989-3.628.47-1.649-.753-2.355-2.685-1.649-4.334.754-1.649 2.685-2.402 4.334-1.649.848.377 1.367 1.131 1.602 1.932.189.565 1.32.236 2.073-1.743l1.79-4.852c-2.92-6.737-8.904-19.551-8.904-19.551-.753-1.837-2.261-1.837-2.968-1.837v-.801h11.118v.8c-2.45 0-1.225 2.874-1.225 2.874l4.994 10.647 2.497-6.36s3.11-7.207-2.356-7.16v-.801z"/>
</svg>
