<svg xmlns="http://www.w3.org/2000/svg" viewBox="0 0 80 60"><defs><style>.cls-1{fill:#fff;}.cls-2{fill:blue;}</style></defs><title>smarycity_assets</title><g id="Layer_5" data-name="Layer 5"><circle class="cls-1" cx="41" cy="30" r="25"/><path class="cls-1" d="M3,23.54H5.39v5.11h5.9V23.54h2.36V36.46H11.29V30.87H5.39v5.59H3Z"/><path class="cls-2" d="M26.53,35.88a6,6,0,0,1-2.27-2.36,8,8,0,0,1,0-7,6,6,0,0,1,2.27-2.36,6.82,6.82,0,0,1,6.56,0,5.91,5.91,0,0,1,2.26,2.36,7.88,7.88,0,0,1,0,7,5.91,5.91,0,0,1-2.26,2.36,6.82,6.82,0,0,1-6.56,0Zm6.17-2.67a4.87,4.87,0,0,0,1-3.21,4.87,4.87,0,0,0-1-3.21,3.54,3.54,0,0,0-2.89-1.22,3.55,3.55,0,0,0-2.89,1.22,4.87,4.87,0,0,0-1,3.21,4.87,4.87,0,0,0,1,3.21,3.55,3.55,0,0,0,2.89,1.22A3.54,3.54,0,0,0,32.7,33.21Z"/><path class="cls-2" d="M55.7,36.46,54.59,27.8l-3.3,5.95L48,27.82l-1.11,8.64H44.41L46.2,23.54h1.93l3.16,5.89,3.14-5.89h1.93l1.79,12.92Z"/><path class="cls-1" d="M68.52,23.54h8.27v2.29H70.94v2.75h4.54v2.29H70.94v3.3h6v2.29H68.52Z"/></g></svg>