<svg xmlns="http://www.w3.org/2000/svg" width="50" height="50" viewBox="0 0 50 50">
    <g fill="none" fill-rule="evenodd">
        <circle cx="25" cy="25" r="25" fill="#00F" fill-rule="nonzero"/>
        <path fill="#FFF" d="M21.114 14.971a2.78 2.78 0 0 1 2.812-2.811 2.802 2.802 0 0 1 2.811 2.811c0 1.543-1.268 2.778-2.811 2.778-1.577 0-2.812-1.235-2.812-2.778zm7.097 20.332v.411h-7.817v-.411c1.303-.412 1.372-1.852 1.372-3.6v-7.989c0-1.2-.377-1.68-1.783-2.297v-.446l6.823-1.405v12.137c0 1.886.171 3.257 1.405 3.6z"/>
    </g>
</svg>
