<svg xmlns="http://www.w3.org/2000/svg" width="78" height="50" viewBox="0 0 78 50">
    <g fill="none" fill-rule="evenodd">
        <circle cx="41" cy="25" r="25" fill="#00F" fill-rule="nonzero"/>
        <path fill="#00F" d="M11.808 31l-1.08-8.442-3.222 5.796-3.24-5.778L3.186 31H.792l1.746-12.6h1.89l3.078 5.742 3.06-5.742h1.89L14.202 31z"/>
        <path fill="#FFF" d="M46.386 18.4h2.268l5.382 8.136V18.4h2.304V31h-1.89l-5.76-8.64V31h-2.304z"/>
        <path fill="#00F" d="M68.556 29.749c-.876-1.002-1.314-2.385-1.314-4.149v-7.2h2.304v6.606c0 .876.078 1.605.234 2.187.156.582.447 1.035.873 1.359.426.324 1.029.486 1.809.486s1.383-.162 1.809-.486c.426-.324.717-.777.873-1.359.156-.582.234-1.311.234-2.187V18.4h2.304v7.2c0 1.764-.438 3.147-1.314 4.149-.876 1.002-2.178 1.503-3.906 1.503-1.728 0-3.03-.501-3.906-1.503z"/>
        <path fill="#FFF" d="M26.386 18.4h8.064v2.232h-5.706v2.682h4.428v2.232h-4.428v3.222h5.886V31h-8.244z"/>
    </g>
</svg>
